# Blender v2.91.2 OBJ File: 'uploads_files_2721943_Steve_riged.blend'
# www.blender.org
mtllib Steve.mtl
o Cube_Cube.001
v -0.800000 4.800000 0.800000
v -0.800000 6.400000 0.800000
v -0.800000 4.800000 -0.800000
v -0.800000 6.400000 -0.800000
v 0.800000 4.800000 0.800000
v 0.800000 6.400000 0.800000
v 0.800000 4.800000 -0.800000
v 0.800000 6.400000 -0.800000
vt 0.374636 0.749880
vt 0.374998 0.875393
vt 0.250026 0.875249
vt 0.250329 0.749950
vt 0.250752 0.750132
vt 0.250172 0.874989
vt 0.125800 0.874908
vt 0.125139 0.749966
vt 0.125511 0.750435
vt 0.124918 0.875018
vt -0.000052 0.874668
vt -0.000431 0.750664
vt 0.250060 0.875100
vt 0.249803 1.000040
vt 0.125153 1.000355
vt 0.125388 0.874841
vt 0.250316 0.875014
vt 0.374838 0.875032
vt 0.374300 0.999987
vt 0.250575 0.999767
vt 0.124769 0.874977
vt 0.249974 0.875114
vt 0.250308 1.000392
vt 0.124735 0.999764
vn -1.0000 0.0000 0.0000
vn 0.0000 0.0000 -1.0000
vn 1.0000 0.0000 0.0000
vn 0.0000 0.0000 1.0000
vn 0.0000 -1.0000 0.0000
vn 0.0000 1.0000 0.0000
usemtl Material.001
s off
f 1/1/1 2/2/1 4/3/1 3/4/1
f 3/5/2 4/6/2 8/7/2 7/8/2
f 7/9/3 8/10/3 6/11/3 5/12/3
f 5/13/4 6/14/4 2/15/4 1/16/4
f 3/17/5 7/18/5 5/19/5 1/20/5
f 8/21/6 4/22/6 2/23/6 6/24/6
o Cube.001_Cube.002
v -0.800000 2.400000 0.400000
v -0.800000 4.800000 0.400000
v -0.800000 2.400000 -0.400000
v -0.800000 4.800000 -0.400000
v 0.800000 2.400000 0.400000
v 0.800000 4.800000 0.400000
v 0.800000 2.400000 -0.400000
v 0.800000 4.800000 -0.400000
vt 0.499582 0.500226
vt 0.499606 0.687917
vt 0.437479 0.687786
vt 0.437659 0.500661
vt 0.437655 0.500066
vt 0.437053 0.688112
vt 0.312363 0.687625
vt 0.313173 0.499304
vt 0.312620 0.499904
vt 0.312582 0.687073
vt 0.250860 0.687141
vt 0.250757 0.500192
vt 0.626008 0.500484
vt 0.624608 0.686992
vt 0.499633 0.686294
vt 0.499589 0.499508
vt 0.312600 0.687836
vt 0.437345 0.687894
vt 0.437459 0.749863
vt 0.312756 0.749909
vt 0.321173 0.388708
vt 0.442014 0.388708
vt 0.442014 0.504360
vt 0.321173 0.504360
vn -1.0000 0.0000 0.0000
vn 0.0000 0.0000 -1.0000
vn 1.0000 0.0000 0.0000
vn 0.0000 0.0000 1.0000
vn 0.0000 -1.0000 0.0000
vn 0.0000 1.0000 0.0000
usemtl Material.001
s off
f 9/25/7 10/26/7 12/27/7 11/28/7
f 11/29/8 12/30/8 16/31/8 15/32/8
f 15/33/9 16/34/9 14/35/9 13/36/9
f 13/37/10 14/38/10 10/39/10 9/40/10
f 11/41/11 15/42/11 13/43/11 9/44/11
f 16/45/12 12/46/12 10/47/12 14/48/12
o Cube.002_Cube.003
v 0.000000 0.000000 0.400000
v 0.000000 2.400000 0.400000
v 0.000000 0.000000 -0.400000
v 0.000000 2.400000 -0.400000
v 0.800000 0.000000 0.400000
v 0.800000 2.400000 0.400000
v 0.800000 0.000000 -0.400000
v 0.800000 2.400000 -0.400000
v 0.000000 1.680071 0.400000
v 0.000000 1.680071 -0.400000
v 0.800000 1.680071 -0.400000
v 0.800000 1.680071 0.400000
vt 0.077885 0.280704
vt 0.079135 0.387152
vt 0.019021 0.387152
vt 0.019021 0.281384
vt 0.259961 0.280435
vt 0.259961 0.385912
vt 0.200633 0.385912
vt 0.200302 0.281245
vt 0.199970 0.388079
vt 0.140735 0.388079
vt 0.140363 0.281039
vt 0.139991 0.385696
vt 0.076634 0.385696
vt 0.200414 0.387025
vt 0.200414 0.504774
vt 0.139871 0.504774
vt 0.139871 0.387025
vt 0.140225 0.388089
vt 0.140225 0.504746
vt 0.079338 0.504746
vt 0.079338 0.388089
vt 0.139991 0.033422
vt 0.076634 0.033422
vt 0.199970 0.034629
vt 0.140735 0.034629
vt 0.259961 0.034287
vt 0.200633 0.034287
vt 0.079135 0.034557
vt 0.019021 0.034557
vn -1.0000 0.0000 0.0000
vn 0.0000 0.0000 -1.0000
vn 1.0000 0.0000 0.0000
vn 0.0000 0.0000 1.0000
vn 0.0000 -1.0000 0.0000
vn 0.0000 1.0000 0.0000
usemtl Material.001
s off
f 25/49/13 18/50/13 20/51/13 26/52/13
f 26/53/14 20/54/14 24/55/14 27/56/14
f 27/56/15 24/57/15 22/58/15 28/59/15
f 28/59/16 22/60/16 18/61/16 25/49/16
f 19/62/17 23/63/17 21/64/17 17/65/17
f 24/66/18 20/67/18 18/68/18 22/69/18
f 21/70/16 28/59/16 25/49/16 17/71/16
f 23/72/15 27/56/15 28/59/15 21/73/15
f 19/74/14 26/53/14 27/56/14 23/75/14
f 17/76/13 25/49/13 26/52/13 19/77/13
o Cube.003_Cube.008
v -0.800000 -0.000000 0.400000
v -0.800000 2.400000 0.400000
v -0.800000 -0.000000 -0.400000
v -0.800000 2.400000 -0.400000
v 0.000000 -0.000000 0.400000
v 0.000000 2.400000 0.400000
v 0.000000 -0.000000 -0.400000
v 0.000000 2.400000 -0.400000
v -0.800000 1.684865 0.400000
v -0.800000 1.684865 -0.400000
v 0.000000 1.684865 -0.400000
v 0.000000 1.684865 0.400000
vt 0.077885 0.281408
vt 0.079135 0.387152
vt 0.019021 0.387152
vt 0.019021 0.282089
vt 0.259961 0.281137
vt 0.259961 0.385912
vt 0.200633 0.385912
vt 0.200302 0.281949
vt 0.199970 0.388079
vt 0.140735 0.388079
vt 0.140363 0.281744
vt 0.139991 0.385696
vt 0.076634 0.385696
vt 0.200414 0.387025
vt 0.200414 0.504774
vt 0.139871 0.504774
vt 0.139871 0.387025
vt 0.140225 0.388089
vt 0.140225 0.504746
vt 0.079338 0.504746
vt 0.079338 0.388089
vt 0.139991 0.033422
vt 0.076634 0.033422
vt 0.199970 0.034629
vt 0.140735 0.034629
vt 0.259961 0.034287
vt 0.200633 0.034287
vt 0.079135 0.034557
vt 0.019021 0.034557
vn -1.0000 0.0000 0.0000
vn 0.0000 0.0000 -1.0000
vn 1.0000 0.0000 0.0000
vn 0.0000 0.0000 1.0000
vn 0.0000 -1.0000 0.0000
vn 0.0000 1.0000 0.0000
usemtl Material.001
s off
f 37/78/19 30/79/19 32/80/19 38/81/19
f 38/82/20 32/83/20 36/84/20 39/85/20
f 39/85/21 36/86/21 34/87/21 40/88/21
f 40/88/22 34/89/22 30/90/22 37/78/22
f 31/91/23 35/92/23 33/93/23 29/94/23
f 36/95/24 32/96/24 30/97/24 34/98/24
f 33/99/22 40/88/22 37/78/22 29/100/22
f 35/101/21 39/85/21 40/88/21 33/102/21
f 31/103/20 38/82/20 39/85/20 35/104/20
f 29/105/19 37/78/19 38/81/19 31/106/19
o Cube.004_Cube.005
v 0.800000 2.401783 -0.408803
v 0.800000 4.801759 -0.398223
v 1.600000 2.401783 -0.408804
v 1.600000 4.801760 -0.398223
v 0.800001 2.398256 0.391189
v 0.800000 4.798233 0.401770
v 1.600001 2.398256 0.391189
v 1.600000 4.798233 0.401769
v 0.800000 3.997298 -0.401769
v 1.600000 3.997298 -0.401770
v 1.600000 3.993771 0.398222
v 0.800000 3.993771 0.398223
v 1.600000 3.589113 -0.403569
v 1.600001 3.585586 0.396423
v 0.800001 3.585586 0.396424
v 0.800000 3.589113 -0.403569
vt 0.864421 0.269055
vt 0.864421 0.386928
vt 0.804901 0.386928
vt 0.804901 0.269055
vt 0.744925 0.268660
vt 0.744925 0.386550
vt 0.804725 0.386550
vt 0.804725 0.268660
vt 0.744093 0.269345
vt 0.744093 0.387773
vt 0.684137 0.387773
vt 0.683715 0.269097
vt 0.683266 0.387101
vt 0.623292 0.387101
vt 0.623318 0.268850
vt 0.744530 0.504357
vt 0.744530 0.387669
vt 0.804980 0.387669
vt 0.804980 0.504357
vt 0.685015 0.504000
vt 0.685015 0.389331
vt 0.743579 0.389331
vt 0.743579 0.504000
vt 0.683722 0.209052
vt 0.623331 0.208849
vt 0.744093 0.209254
vt 0.744925 0.208842
vt 0.804725 0.208842
vt 0.864421 0.209246
vt 0.804901 0.209246
vt 0.864421 0.035274
vt 0.804901 0.035274
vt 0.744925 0.034843
vt 0.804725 0.034843
vt 0.744093 0.034462
vt 0.684137 0.034462
vt 0.683345 0.034318
vt 0.623370 0.034318
vn -0.0000 0.0044 -1.0000
vn 1.0000 0.0000 -0.0000
vn 0.0000 -0.0044 1.0000
vn -1.0000 -0.0000 0.0000
vn 0.0000 -1.0000 -0.0044
vn -0.0000 1.0000 0.0044
usemtl Material.001
s off
f 49/107/25 42/108/25 44/109/25 50/110/25
f 50/111/26 44/112/26 48/113/26 51/114/26
f 51/115/27 48/116/27 46/117/27 52/118/27
f 52/118/28 46/119/28 42/120/28 49/121/28
f 43/122/29 47/123/29 45/124/29 41/125/29
f 48/126/30 44/127/30 42/128/30 46/129/30
f 55/130/28 52/118/28 49/121/28 56/131/28
f 54/132/27 51/115/27 52/118/27 55/130/27
f 53/133/26 50/111/26 51/114/26 54/134/26
f 56/135/25 49/107/25 50/110/25 53/136/25
f 41/137/25 56/135/25 53/136/25 43/138/25
f 43/139/26 53/133/26 54/134/26 47/140/26
f 47/141/27 54/132/27 55/130/27 45/142/27
f 45/143/28 55/130/28 56/131/28 41/144/28
o Cube.005_Cube.007
v -0.795891 2.400000 0.400000
v -0.795891 4.800000 0.400000
v -1.595891 2.400000 0.400000
v -1.595891 4.800000 0.400000
v -0.795892 2.400000 -0.400000
v -0.795892 4.800000 -0.400000
v -1.595892 2.400000 -0.400000
v -1.595892 4.800000 -0.400000
v -0.795891 3.997656 0.400000
v -1.595891 3.997656 0.400000
v -1.595892 3.997656 -0.400000
v -0.795892 3.997656 -0.400000
vt 0.865170 0.269232
vt 0.865170 0.387141
vt 0.805097 0.387142
vt 0.805097 0.269233
vt 0.744382 0.269416
vt 0.744382 0.387274
vt 0.804324 0.387274
vt 0.804324 0.269416
vt 0.744593 0.268199
vt 0.744593 0.386314
vt 0.684637 0.386314
vt 0.683965 0.268681
vt 0.683266 0.387101
vt 0.623292 0.387101
vt 0.623318 0.269162
vt 0.744530 0.504357
vt 0.744530 0.387669
vt 0.804980 0.387669
vt 0.804980 0.504357
vt 0.685015 0.504000
vt 0.685015 0.389331
vt 0.743579 0.389331
vt 0.743579 0.504000
vt 0.683345 0.034318
vt 0.623370 0.034318
vt 0.744593 0.033003
vt 0.684637 0.033003
vt 0.744382 0.034732
vt 0.804324 0.034732
vt 0.865170 0.034447
vt 0.805097 0.034448
vn 0.0000 0.0000 1.0000
vn -1.0000 0.0000 0.0000
vn -0.0000 0.0000 -1.0000
vn 1.0000 0.0000 -0.0000
vn 0.0000 -1.0000 -0.0000
vn 0.0000 1.0000 0.0000
usemtl Material.001
s off
f 65/145/31 58/146/31 60/147/31 66/148/31
f 66/149/32 60/150/32 64/151/32 67/152/32
f 67/153/33 64/154/33 62/155/33 68/156/33
f 68/156/34 62/157/34 58/158/34 65/159/34
f 59/160/35 63/161/35 61/162/35 57/163/35
f 64/164/36 60/165/36 58/166/36 62/167/36
f 61/168/34 68/156/34 65/159/34 57/169/34
f 63/170/33 67/153/33 68/156/33 61/171/33
f 59/172/32 66/149/32 67/152/32 63/173/32
f 57/174/31 65/145/31 66/148/31 59/175/31
